<svg xmlns="http://www.w3.org/2000/svg" width="51.952" height="51.957" viewBox="0 0 51.952 51.957">
  <g id="icon" transform="translate(0 0)">
    <g id="_002768ff" data-name="#002768ff" transform="translate(0)">
      <path id="path3005" d="M33.629,9.341a25.849,25.849,0,0,1,20.294,7.932A25.685,25.685,0,0,1,61.137,34.15a21.01,21.01,0,0,1-.027,2.959,25.835,25.835,0,0,1-2.561,9.561,26.224,26.224,0,0,1-6.264,8.164,25.914,25.914,0,0,1-16.132,6.409c-.979-.009-1.961.042-2.936-.059a25.718,25.718,0,0,1-11.06-3.418A25.947,25.947,0,0,1,9.235,36.477c.027-1.224-.063-2.453.087-3.671a25.829,25.829,0,0,1,6.355-14.682,19.2,19.2,0,0,1,1.849-1.891A25.833,25.833,0,0,1,33.629,9.341Z" transform="translate(-9.232 -9.291)" fill="#002768"/>
    </g>
    <g id="crane" transform="translate(11.257 10.824)">
      <path id="Path_1490" data-name="Path 1490" d="M28.734,19.791c-.638,0,.16.4-4.558-2.745a1.852,1.852,0,0,0-.46-1.915c-.875-.856-.728-.587-.728-1.085h.638a.638.638,0,0,0,.638-.638V10.853a.638.638,0,0,0-.638-.638h-.638V9.027L24.9,8.938a.638.638,0,0,0,.638-.638V4.424c-.045-.638.549-.294-14.511-4.4C10.859,0,5.873,0,5.7,0S5.7-.1.306,3.275a.741.741,0,0,0-.262.345C.006,3.83.006,8.976.057,9.181c.217.53.249.4,5.056.4V26.814A1.915,1.915,0,0,0,3.2,28.73v1.277a.638.638,0,0,0,.638.638h8.938a.638.638,0,0,0,.638-.638V28.73A1.915,1.915,0,0,0,11.5,26.814V9.576L21.712,9.11v1.1h-.638a.638.638,0,0,0-.638.638v2.554a.638.638,0,0,0,.638.638h.638c0,1.117-.134.766,1.1,2a.638.638,0,0,1,.109.166c-.575-.383-.638-.332-1.213.038v-.294a.638.638,0,1,0-1.277,0,3.058,3.058,0,0,0,.1,1.085C15.8,20.2,16.6,19.791,15.966,19.791a.638.638,0,0,0-.638.638v7.661a.638.638,0,0,0,.638.638H28.734a.638.638,0,0,0,.638-.638V20.43A.638.638,0,0,0,28.734,19.791ZM24.265,7.661l-3.1.14c3.192-3.192,2.63-2.771,3.1-2.745ZM5.113,3.192H2.873l2.241-1.4ZM1.283,4.469h2.93L1.283,7.4ZM6.39,7.284l3.569,3.569L6.39,14.422Zm.262,8.676,3.569-3.569V19.53Zm3.307,5.108L6.39,24.637V17.5ZM6.652,5.746l3.569-3.569V9.315ZM11.5,4.5l2.771.121L11.5,7.4Zm0-1.277V1.475l7.661,2.094ZM22.21,4.986,19.8,7.4,17.153,4.756Zm-6.563.064,2.873,2.9-6.071.275ZM6.39,1.277H9.32L6.39,4.207ZM2.183,8.3l2.93-2.93V8.3Zm9.953,20.43v.638H4.475V28.73a.638.638,0,0,1,.638-.638H11.5A.638.638,0,0,1,12.136,28.73ZM6.39,26.814c0-.524-.562.185,3.83-4.207v4.207ZM21.712,11.492h1.277v1.277H21.712Zm-.4,6.563a1.915,1.915,0,0,0,2.068,0l2.6,1.737H18.711Zm6.78,9.4H16.6V21.068H28.1Z" transform="translate(-0.017 0.001)" fill="#fff"/>
      <path id="Path_1491" data-name="Path 1491" d="M28,35.638v2.554a.638.638,0,1,0,1.277,0V35.638a.638.638,0,1,0-1.277,0Zm2.554,0v2.554a.638.638,0,1,0,1.277,0V35.638a.638.638,0,1,0-1.277,0Zm2.554,0v2.554a.638.638,0,1,0,1.277,0V35.638a.638.638,0,1,0-1.277,0Zm2.554,0v2.554a.638.638,0,1,0,1.277,0V35.638a.638.638,0,1,0-1.277,0Z" transform="translate(-10.136 -12.654)" fill="#fff"/>
    </g>
  </g>
</svg>
