<svg xmlns="http://www.w3.org/2000/svg" width="15" height="16" viewBox="0 0 15 16">
  <g id="icon" transform="translate(-0.017 0.001)">
    <path id="Path_1490" data-name="Path 1490" d="M14.691,10.333c-.326,0,.082.21-2.329-1.433a.981.981,0,0,0-.235-1c-.447-.447-.372-.307-.372-.567h.326A.33.33,0,0,0,12.408,7V5.666a.33.33,0,0,0-.326-.333h-.326v-.62l.979-.047a.33.33,0,0,0,.326-.333V2.31c-.023-.333.281-.153-7.415-2.3C5.557,0,3.009,0,2.921,0s0-.053-2.756,1.71a.386.386,0,0,0-.134.18c-.02.11-.02,2.8.007,2.9C.149,5.07.165,5,2.621,5v9a.989.989,0,0,0-.979,1v.667A.33.33,0,0,0,1.969,16H6.536a.33.33,0,0,0,.326-.333V15a.989.989,0,0,0-.979-1V5L11.1,4.756v.577h-.326a.33.33,0,0,0-.326.333V7a.33.33,0,0,0,.326.333H11.1c0,.583-.069.4.564,1.047a.334.334,0,0,1,.055.087c-.294-.2-.326-.173-.62.02V8.333a.326.326,0,1,0-.652,0A1.63,1.63,0,0,0,10.5,8.9c-2.417,1.647-2.006,1.433-2.332,1.433a.33.33,0,0,0-.326.333v4A.33.33,0,0,0,8.167,15h6.524a.33.33,0,0,0,.326-.333v-4A.33.33,0,0,0,14.691,10.333ZM12.408,4l-1.582.073c1.631-1.667,1.344-1.447,1.582-1.433ZM2.621,1.666H1.476L2.621.933ZM.664,2.333h1.5l-1.5,1.53ZM3.274,3.8,5.1,5.666,3.274,7.53Zm.134,4.53L5.231,6.47V10.2ZM5.1,11,3.274,12.863V9.136ZM3.407,3,5.231,1.136V4.863Zm2.476-.65L7.3,2.413,5.883,3.863Zm0-.667V.77L9.8,1.863Zm5.474.92-1.233,1.26L8.774,2.483ZM8,2.636,9.472,4.15l-3.1.143ZM3.274.666h1.5L3.274,2.2ZM1.124,4.333l1.5-1.53v1.53ZM6.21,15v.333H2.3V15a.33.33,0,0,1,.326-.333H5.883A.33.33,0,0,1,6.21,15ZM3.274,14c0-.273-.287.1,1.957-2.2V14ZM11.1,6h.652v.667H11.1Zm-.2,3.427a.961.961,0,0,0,1.057,0l1.331.907H9.57Zm3.464,4.907H8.493V11h5.872Z" transform="translate(0)" fill="#444"/>
    <path id="Path_1491" data-name="Path 1491" d="M28,35.333v1.333a.326.326,0,1,0,.652,0V35.333a.326.326,0,1,0-.652,0Zm1.3,0v1.333a.326.326,0,1,0,.652,0V35.333a.326.326,0,1,0-.652,0Zm1.3,0v1.333a.326.326,0,1,0,.652,0V35.333a.326.326,0,1,0-.652,0Zm1.3,0v1.333a.326.326,0,1,0,.652,0V35.333a.326.326,0,1,0-.652,0Z" transform="translate(-18.855 -23.334)" fill="#444"/>
  </g>
</svg>
