<svg xmlns="http://www.w3.org/2000/svg" width="12.571" height="16" viewBox="0 0 12.571 16">
  <g id="icon" transform="translate(-5 -2)">
    <path id="Path_1492" data-name="Path 1492" d="M11.286,18a.571.571,0,0,0,.354-.126c.217-.194,5.931-4.8,5.931-9.589A6.286,6.286,0,1,0,5,8.286c0,4.789,5.714,9.394,5.931,9.589a.571.571,0,0,0,.354.126ZM6.143,8.286a5.143,5.143,0,0,1,10.286,0c0,3.6-3.926,7.32-5.143,8.394C10.069,15.606,6.143,11.886,6.143,8.286Z" fill="#002768"/>
    <path id="Path_1493" data-name="Path 1493" d="M16.714,10.857a2.857,2.857,0,1,0-2.857,2.857,2.857,2.857,0,0,0,2.857-2.857Zm-4.571,0a1.714,1.714,0,1,1,1.714,1.714A1.714,1.714,0,0,1,12.143,10.857Z" transform="translate(-2.571 -2.571)" fill="#002768"/>
  </g>
</svg>
